<?xml version="1.0" standalone="no"?>
<!DOCTYPE svg PUBLIC "-//W3C//DTD SVG 20010904//EN"
 "http://www.w3.org/TR/2001/REC-SVG-20010904/DTD/svg10.dtd">
<svg version="1.0" xmlns="http://www.w3.org/2000/svg"
 width="500.000000pt" height="500.000000pt" viewBox="0 0 500.000000 500.000000"
 preserveAspectRatio="xMidYMid meet">
<metadata>
Created by potrace 1.11, written by Peter Selinger 2001-2013
</metadata>
<g transform="translate(0.000000,500.000000) scale(0.100000,-0.100000)"
fill="#000000" stroke="none">
<path d="M2434 4718 c15 -46 26 -58 26 -31 0 12 -9 31 -19 44 l-20 24 13 -37z"/>
<path d="M2846 4658 c-51 -103 -85 -126 -139 -94 -49 28 -87 37 -109 25 -11
-6 -57 -12 -102 -14 -102 -4 -130 -15 -145 -55 -6 -18 -20 -34 -31 -37 -14 -4
-20 -14 -20 -34 0 -44 -19 -77 -49 -82 -14 -3 -32 -1 -38 5 -21 17 -36 -39
-29 -111 6 -70 18 -91 51 -91 32 0 43 18 51 83 8 65 31 78 53 30 8 -16 16 -34
20 -42 4 -8 15 -19 25 -25 14 -9 21 -6 36 12 23 27 31 28 54 1 16 -19 20 -20
32 -7 8 8 23 30 32 49 25 51 47 49 63 -6 14 -48 41 -59 47 -20 5 29 32 85 41
85 12 0 37 -32 50 -67 16 -39 45 -51 71 -28 15 14 19 37 23 148 3 73 10 165
16 206 11 73 10 95 -3 69z"/>
<path d="M2805 4035 c-42 -18 -550 -21 -589 -3 -38 17 -48 -2 -43 -74 4 -47 2
-60 -15 -75 -17 -15 -17 -19 -4 -28 11 -9 16 -44 19 -161 3 -82 8 -163 12
-179 6 -29 5 -31 -47 -49 -143 -51 -290 -142 -401 -250 -96 -93 -127 -135
-127 -174 0 -18 3 -32 6 -32 12 0 33 34 34 53 0 9 6 17 13 17 7 0 36 27 65 59
97 111 264 221 424 281 54 20 98 20 98 0 0 -5 16 -18 35 -30 65 -40 65 -41 65
-171 0 -123 -2 -129 -41 -108 -16 8 -28 5 -56 -12 -20 -13 -31 -25 -24 -27 6
-2 23 4 37 13 24 15 28 15 59 1 18 -9 46 -16 63 -16 21 0 31 -6 35 -20 8 -29
37 -26 37 5 0 16 6 25 15 25 8 0 15 -9 15 -19 0 -45 46 -34 136 33 59 43 68
47 90 37 37 -16 59 -14 80 10 17 19 26 21 90 15 69 -6 71 -6 115 28 48 37 79
49 94 38 6 -4 26 -27 44 -52 19 -25 54 -66 78 -91 24 -25 48 -59 53 -75 l8
-29 1 32 c1 25 -9 43 -43 80 -25 27 -64 73 -88 103 -24 30 -52 56 -62 58 -9 2
-46 -15 -81 -38 -61 -40 -65 -41 -123 -34 -53 6 -63 4 -91 -17 -28 -20 -34
-21 -71 -10 l-40 12 0 77 c0 98 5 115 38 134 15 9 38 26 52 38 33 29 69 22
195 -40 118 -58 180 -104 304 -223 83 -80 98 -100 154 -210 108 -211 132 -308
131 -527 0 -128 -4 -170 -23 -245 -107 -415 -439 -726 -850 -797 -50 -8 -74
-9 -82 -1 -7 7 -7 71 1 219 6 115 15 278 19 363 8 146 9 155 32 172 35 27 74
23 135 -12 30 -17 59 -27 65 -23 11 7 34 54 128 267 18 40 36 67 45 67 8 0 19
8 25 18 13 25 41 140 41 170 0 77 57 195 104 217 22 10 39 28 45 46 6 16 17
37 26 45 9 9 13 19 10 23 -4 3 -11 -2 -16 -12 -6 -9 -27 -24 -47 -32 -20 -9
-44 -23 -54 -32 -22 -19 -63 -130 -77 -205 -31 -163 -31 -165 -56 -176 -24
-11 -32 -25 -95 -172 -67 -156 -70 -160 -91 -160 -12 0 -34 10 -51 21 -16 12
-49 24 -71 26 -37 4 -49 0 -93 -33 -70 -52 -104 -109 -120 -202 -11 -63 -19
-80 -46 -106 -18 -17 -38 -40 -43 -50 -9 -16 -16 -17 -69 -7 l-58 11 -41 -36
c-47 -39 -75 -49 -114 -39 -39 9 -90 65 -102 113 -7 22 -23 55 -38 72 l-26 31
12 87 c7 48 15 107 18 132 3 25 11 55 18 66 9 13 10 25 4 31 -5 5 -5 32 1 68
5 33 16 110 25 172 16 115 26 150 57 192 22 30 23 69 2 100 -13 18 -23 22 -45
17 -16 -3 -29 -1 -29 4 0 20 -49 -13 -60 -41 -13 -31 -6 -62 22 -98 10 -13 16
-31 13 -40 -2 -9 -9 -63 -14 -121 -28 -292 -52 -504 -57 -509 -3 -3 -58 -4
-122 -3 -94 3 -119 7 -129 20 -9 11 -13 58 -13 150 0 157 17 230 80 354 22 42
40 84 40 95 -1 10 -14 34 -30 53 -24 28 -30 44 -30 82 0 26 -4 48 -10 48 -24
0 -3 -146 27 -181 19 -23 17 -33 -21 -107 -58 -114 -76 -191 -76 -329 0 -106
17 -223 34 -241 3 -2 54 -5 115 -6 l110 -1 41 -40 c42 -41 72 -89 83 -135 10
-40 69 -91 114 -97 33 -4 45 0 86 31 57 43 123 50 157 16 18 -18 20 -33 20
-190 l0 -170 -24 0 c-34 0 -149 25 -222 49 -291 93 -546 343 -655 642 -44 121
-60 216 -60 369 0 188 27 304 105 466 23 46 39 84 35 84 -4 0 -9 12 -11 28 -3
24 -8 19 -45 -48 -53 -94 -110 -264 -124 -372 -24 -178 0 -398 62 -563 74
-197 232 -397 412 -518 339 -230 782 -255 1137 -63 146 78 303 218 388 343
302 446 257 1022 -109 1407 -112 118 -268 223 -404 271 -67 24 -71 29 -55 62
9 18 16 82 19 178 6 147 6 149 30 155 l24 5 -27 12 c-24 12 -26 17 -26 75 0
65 -8 109 -19 107 -3 0 -19 -7 -36 -14z"/>
<path d="M3180 3736 c0 -2 7 -7 16 -10 8 -3 12 -2 9 4 -6 10 -25 14 -25 6z"/>
<path d="M3220 3717 c0 -2 35 -27 78 -55 513 -340 769 -969 636 -1560 -110
-483 -439 -870 -895 -1053 -335 -135 -739 -135 -1076 0 -337 134 -621 400
-779 729 -259 536 -169 1181 228 1632 58 65 178 175 219 201 7 4 11 10 8 14
-6 6 -129 -89 -190 -146 -297 -279 -477 -720 -455 -1115 14 -263 58 -432 173
-660 107 -213 303 -431 508 -565 167 -110 331 -177 535 -220 155 -32 418 -32
584 0 203 40 419 134 596 260 130 92 327 307 401 436 108 191 172 366 204 560
13 79 17 379 5 440 -26 138 -33 173 -53 240 -11 39 -23 75 -27 80 -4 6 -17 37
-30 70 -77 197 -241 412 -425 560 -88 71 -245 168 -245 152z"/>
<path d="M2013 3654 c2 -31 -2 -40 -23 -51 -23 -12 -27 -11 -47 14 -37 46 -45
16 -15 -54 19 -45 32 -63 46 -63 13 0 16 5 11 18 -18 44 -17 52 10 62 38 15
49 13 60 -12 13 -28 35 -35 34 -11 -1 26 -52 126 -66 130 -9 3 -12 -7 -10 -33z"/>
<path d="M1686 3665 c-11 -8 -18 -17 -15 -19 2 -2 15 4 28 15 27 22 15 26 -13
4z"/>
<path d="M3072 3618 c-18 -18 -15 -42 9 -72 32 -40 10 -76 -25 -41 -18 18 -39
20 -34 3 6 -18 67 -48 84 -41 8 3 19 14 25 25 8 16 5 27 -15 57 -14 20 -26 40
-26 44 0 11 38 8 45 -3 7 -12 35 -14 35 -2 0 10 -54 42 -72 42 -8 0 -19 -5
-26 -12z"/>
<path d="M1778 3567 c-54 -36 -61 -51 -20 -43 24 5 31 0 60 -44 31 -49 52 -63
52 -37 0 7 -13 34 -30 60 -30 47 -30 47 -10 67 42 42 12 40 -52 -3z"/>
<path d="M3200 3483 l-41 -58 37 -32 c42 -37 70 -33 30 3 -15 14 -23 30 -20
39 7 18 35 20 52 3 6 -6 15 -9 19 -5 3 4 -3 16 -15 28 -13 11 -20 24 -17 30 8
12 42 12 50 -1 3 -5 14 -10 23 -10 12 1 7 9 -18 30 -19 17 -40 30 -47 30 -6 0
-30 -26 -53 -57z"/>
<path d="M1650 3474 c0 -4 16 -24 35 -45 39 -43 43 -60 19 -83 -22 -23 -29
-21 -78 24 -47 44 -56 48 -56 25 0 -22 74 -95 98 -95 30 0 82 47 82 75 0 29
-59 104 -82 104 -10 1 -18 -2 -18 -5z"/>
<path d="M3337 3382 c-26 -26 -47 -53 -47 -60 0 -17 25 -15 40 3 26 31 42 18
38 -32 -4 -54 13 -68 27 -21 6 17 19 36 30 42 24 13 35 26 35 43 0 16 -49 73
-64 73 -6 0 -33 -22 -59 -48z m91 -15 c4 -20 -25 -34 -40 -19 -15 15 -1 44 19
40 10 -2 19 -11 21 -21z"/>
<path d="M1485 3302 c-17 -11 -36 -30 -44 -45 -31 -58 39 -132 100 -106 81 33
77 138 -6 163 -12 3 -33 -2 -50 -12z m73 -34 c7 -7 12 -24 12 -38 0 -34 -17
-50 -52 -50 -18 0 -33 8 -44 25 -15 23 -15 27 0 50 18 27 63 34 84 13z"/>
<path d="M3477 3235 c-20 -35 -37 -67 -37 -71 0 -6 45 -2 133 12 57 9 40 30
-22 26 -28 -2 -51 -1 -51 3 0 3 9 23 20 44 17 35 18 51 0 51 -3 0 -22 -29 -43
-65z"/>
<path d="M1369 3158 c-2 -17 -2 -19 6 -50 6 -24 4 -27 -27 -30 -21 -2 -33 -8
-33 -18 0 -11 10 -14 42 -12 24 2 54 -3 72 -12 37 -20 41 -20 41 -2 0 7 -11
21 -25 30 -13 9 -34 36 -45 61 -21 46 -29 55 -31 33z"/>
<path d="M1917 3119 c-56 -8 -117 -35 -117 -51 0 -12 6 -10 45 12 28 16 57 21
123 22 92 3 131 -11 190 -65 17 -16 22 -17 22 -5 0 23 -30 45 -98 73 -65 27
-74 27 -165 14z"/>
<path d="M3577 3084 c-51 -32 -65 -54 -35 -54 19 0 117 65 118 78 0 20 -23 14
-83 -24z"/>
<path d="M1777 3018 c-15 -39 -16 -48 -6 -48 13 0 22 24 16 47 -4 17 -4 17
-10 1z"/>
<path d="M3616 2989 c-19 -15 -26 -30 -26 -55 0 -39 25 -84 46 -84 18 0 18 14
0 29 -25 21 -26 50 -1 79 20 23 27 25 51 17 20 -7 32 -20 39 -43 5 -18 13 -31
18 -29 5 1 8 6 8 10 -1 4 -1 15 -1 26 0 10 -11 30 -25 45 -30 32 -72 34 -109
5z"/>
<path d="M1722 2910 c-14 -24 -16 -70 -2 -70 6 0 10 13 10 29 0 17 5 33 10 36
12 7 13 25 2 25 -4 0 -13 -9 -20 -20z"/>
<path d="M1362 2848 c-7 -7 -12 -18 -12 -25 0 -22 -23 -25 -63 -8 -44 18 -77
19 -77 3 0 -13 129 -60 142 -52 9 6 31 84 25 90 -2 2 -9 -2 -15 -8z"/>
<path d="M3705 2811 c-53 -16 -60 -21 -58 -42 5 -45 13 -69 24 -69 7 0 9 10 5
26 -4 15 -2 32 5 40 10 13 14 12 30 -2 11 -10 19 -23 19 -31 0 -7 5 -13 11
-13 7 0 8 11 4 29 -3 16 -2 32 4 35 16 10 41 -5 41 -25 0 -10 5 -19 10 -19 13
0 13 19 -1 59 -13 35 -13 36 -94 12z"/>
<path d="M2745 2740 c-44 -16 -95 -31 -112 -35 -35 -6 -43 -22 -17 -32 15 -6
207 52 231 69 28 21 24 -35 -12 -158 -13 -42 13 -34 35 11 14 29 22 66 23 107
l2 63 -35 2 c-19 0 -71 -12 -115 -27z"/>
<path d="M2183 2700 c-77 -36 -95 -51 -75 -64 4 -2 7 -78 7 -168 l0 -163 58
28 c37 18 77 29 108 30 36 2 48 5 44 15 -3 8 -5 17 -5 22 0 11 -85 -6 -126
-26 -19 -9 -36 -15 -39 -13 -2 2 -5 68 -7 146 l-3 142 40 20 c58 28 101 43
116 41 8 -1 25 1 37 5 18 6 20 10 10 16 -28 18 -85 7 -165 -31z"/>
<path d="M1247 2705 c-99 -21 -101 -41 -7 -105 62 -42 85 -46 62 -10 -19 31
-14 68 13 92 24 21 25 39 2 37 -7 -1 -38 -7 -70 -14z m21 -53 c4 -23 -12 -29
-37 -13 -19 12 -6 43 16 39 10 -2 19 -13 21 -26z"/>
<path d="M2314 2565 c0 -55 1 -76 3 -47 2 29 2 74 0 100 -2 26 -3 2 -3 -53z"/>
<path d="M3715 2518 c-21 -25 -25 -38 -21 -62 4 -17 14 -38 22 -46 15 -14 16
-12 10 23 -5 28 -3 46 9 63 31 48 95 18 95 -44 0 -34 14 -43 24 -16 9 23 -4
66 -27 92 -31 34 -79 30 -112 -10z"/>
<path d="M2781 2501 c-22 -31 -22 -31 -2 -31 24 0 48 37 33 52 -6 6 -17 -1
-31 -21z"/>
<path d="M1152 2508 c3 -7 21 -14 41 -16 20 -2 37 -8 37 -14 0 -6 -18 -26 -40
-45 -22 -19 -40 -40 -40 -47 0 -13 61 -26 122 -26 23 0 29 4 26 18 -2 12 -15
18 -46 20 -23 2 -42 5 -42 8 0 3 22 26 50 51 27 25 47 49 44 54 -9 15 -156 11
-152 -3z"/>
<path d="M2571 2413 c-7 -15 -18 -36 -23 -46 -13 -27 -3 -32 39 -19 21 5 62
13 90 17 43 6 57 12 74 36 16 22 17 29 6 29 -8 0 -20 -7 -27 -15 -7 -8 -23
-15 -37 -15 -13 0 -44 -5 -69 -11 -49 -13 -64 -8 -44 15 6 9 10 20 8 27 -2 6
-10 -2 -17 -18z"/>
<path d="M3715 2335 c-28 -27 -34 -88 -11 -117 46 -61 146 -21 146 57 0 35
-50 85 -85 85 -14 0 -37 -11 -50 -25z m98 -36 c16 -26 0 -68 -30 -75 -48 -12
-85 28 -65 71 10 22 17 26 49 23 20 -2 40 -10 46 -19z"/>
<path d="M1202 2300 c-44 -18 -53 -100 -15 -142 10 -11 30 -18 54 -18 52 0 83
39 76 94 -3 21 -11 45 -19 52 -18 18 -68 26 -96 14z m70 -33 c31 -24 27 -73
-7 -89 -60 -27 -107 49 -53 86 27 19 38 19 60 3z"/>
<path d="M3665 2130 c-3 -5 8 -16 24 -25 36 -18 32 -38 -11 -51 -47 -14 -51
-39 -5 -31 23 3 42 1 54 -8 10 -8 26 -15 35 -15 20 0 48 48 48 83 0 22 -7 26
-65 41 -76 19 -72 19 -80 6z m121 -61 c8 -14 -21 -43 -35 -35 -19 12 -13 46 8
46 11 0 23 -5 27 -11z"/>
<path d="M1272 2080 c-69 -19 -80 -26 -66 -40 5 -5 24 -5 49 1 22 6 52 13 68
16 25 5 37 27 20 36 -5 2 -36 -4 -71 -13z"/>
<path d="M1230 1959 c0 -25 41 -119 52 -119 6 0 7 11 4 24 -5 22 -1 27 31 41
62 27 68 31 72 50 2 14 -1 16 -15 10 -105 -42 -104 -42 -124 -15 -15 18 -20
21 -20 9z"/>
<path d="M3610 1956 c0 -7 9 -16 20 -19 16 -4 20 -14 20 -49 0 -73 45 -93 80
-35 30 48 25 60 -35 90 -62 30 -85 34 -85 13z m108 -73 c-2 -10 -13 -19 -26
-21 -17 -3 -22 2 -22 17 0 16 6 21 26 21 19 0 25 -5 22 -17z"/>
<path d="M1366 1810 c-26 -35 -43 -67 -39 -75 6 -16 59 -19 127 -7 41 7 63 32
28 32 -26 0 -56 47 -54 83 3 41 -12 33 -62 -33z m54 -25 c16 -19 4 -35 -26
-35 -26 0 -32 18 -12 38 16 16 23 15 38 -3z"/>
<path d="M3536 1804 c-65 -64 -19 -137 52 -84 40 29 58 18 35 -20 -9 -16 -14
-32 -10 -36 7 -8 29 13 46 44 25 47 -29 82 -75 47 -23 -17 -54 -19 -54 -3 0 6
9 22 21 34 24 25 9 43 -15 18z"/>
<path d="M1460 1650 c-46 -41 -52 -50 -37 -56 12 -4 26 1 41 15 12 11 28 21
35 21 13 0 13 -8 -6 -101 -9 -45 21 -42 81 8 52 44 62 63 32 63 -7 0 -21 -9
-31 -20 -36 -40 -47 -26 -39 50 8 86 1 89 -76 20z"/>
<path d="M3394 1525 c-4 -9 -2 -21 4 -27 16 -16 47 -5 47 17 0 26 -42 34 -51
10z"/>
<path d="M1643 1444 c-3 -8 2 -23 11 -32 15 -15 17 -15 32 0 21 21 11 48 -16
48 -11 0 -23 -7 -27 -16z"/>
<path d="M3270 1420 c0 -5 -10 -10 -21 -10 -19 0 -17 -3 12 -23 19 -13 35 -23
35 -23 6 4 -10 66 -17 66 -5 0 -9 -4 -9 -10z"/>
<path d="M1766 1382 c-2 -4 -1 -23 3 -42 7 -28 10 -31 16 -17 4 9 5 23 2 31
-3 7 0 19 6 25 8 8 7 11 -5 11 -9 0 -19 -3 -22 -8z"/>
<path d="M3177 1374 c-6 -7 32 -64 44 -64 8 0 -23 69 -32 70 -3 0 -8 -3 -12
-6z"/>
<path d="M1825 1324 c-10 -15 -14 -32 -9 -42 7 -16 7 -16 11 1 3 9 9 17 14 17
5 0 9 9 9 19 0 11 6 22 13 24 7 4 6 6 -4 6 -9 1 -24 -11 -34 -25z"/>
<path d="M3120 1324 c0 -7 9 -22 20 -35 10 -13 19 -19 20 -13 0 7 -9 22 -20
35 -10 13 -19 19 -20 13z"/>
<path d="M1902 1298 c-20 -20 -15 -47 8 -41 16 4 20 0 21 -18 1 -21 2 -21 6
-4 3 11 12 28 21 38 17 19 10 22 -18 7 -25 -13 -37 5 -13 19 15 8 15 10 3 11
-9 0 -21 -5 -28 -12z"/>
<path d="M3050 1285 c0 -3 7 -17 16 -30 23 -36 39 -31 17 5 -15 27 -33 40 -33
25z"/>
<path d="M3014 1258 c3 -7 9 -21 12 -30 4 -10 11 -18 16 -18 5 0 7 6 4 13 -3
6 -9 20 -12 30 -4 9 -11 17 -16 17 -5 0 -7 -6 -4 -12z"/>
<path d="M2961 1241 c-9 -16 -17 -19 -43 -14 -24 5 -29 3 -24 -8 3 -8 9 -22
12 -31 4 -10 11 -18 16 -18 5 0 7 4 3 10 -3 5 8 16 24 25 37 19 41 19 41 0 0
-8 4 -15 10 -15 6 0 5 11 -2 28 -18 41 -25 46 -37 23z"/>
<path d="M2035 1240 c-4 -6 -15 -8 -26 -5 -15 5 -19 1 -19 -19 0 -16 4 -24 13
-20 12 5 52 54 43 54 -3 0 -8 -5 -11 -10z"/>
<path d="M2070 1216 c0 -8 -3 -23 -6 -33 -6 -16 -5 -16 9 2 19 23 22 45 7 45
-5 0 -10 -6 -10 -14z"/>
<path d="M2126 1201 c-19 -21 -19 -52 0 -58 7 -2 10 6 6 23 -3 16 1 29 9 35 7
4 11 10 8 14 -3 3 -14 -4 -23 -14z"/>
<path d="M2868 1179 c3 -20 8 -27 14 -21 11 11 2 52 -11 52 -4 0 -6 -14 -3
-31z"/>
<path d="M2217 1194 c-10 -11 -8 -74 2 -74 11 0 21 62 12 73 -4 4 -10 4 -14 1z"/>
<path d="M2790 1195 c0 -9 25 -50 35 -57 21 -16 25 -7 5 14 -11 12 -20 28 -20
35 0 7 -4 13 -10 13 -5 0 -10 -2 -10 -5z"/>
<path d="M2757 1184 c-12 -12 -8 -34 8 -50 11 -12 15 -12 14 -2 -2 29 -15 59
-22 52z"/>
<path d="M2352 1150 c-24 -31 -28 -50 -12 -50 6 0 10 9 10 20 0 13 7 20 20 20
11 0 20 6 20 14 0 27 -17 25 -38 -4z"/>
<path d="M2691 1164 c0 -10 4 -27 7 -36 7 -17 8 -17 19 1 10 16 8 22 -8 37
-18 16 -19 16 -18 -2z"/>
<path d="M2430 1128 c1 -37 2 -40 12 -23 6 11 13 22 15 24 1 3 14 -6 27 -18
15 -14 26 -19 31 -12 9 15 -3 31 -23 31 -10 0 -23 9 -30 20 -20 32 -32 23 -32
-22z"/>
<path d="M2550 1131 c0 -22 5 -43 11 -46 16 -10 24 4 11 17 -7 7 -12 22 -12
35 0 18 6 23 24 23 20 0 25 -6 28 -32 3 -28 5 -30 13 -14 12 27 -7 50 -44 54
-30 3 -31 2 -31 -37z"/>
<path d="M2385 1120 c-4 -7 -1 -16 6 -21 17 -10 26 8 11 23 -6 6 -12 6 -17 -2z"/>
</g>
</svg>
